<svg id="Layer_1" enable-background="new 0 0 511.921 511.921" height="512" style="fill:#4e504d" viewBox="0 0 511.921 511.921" width="512" xmlns="http://www.w3.org/2000/svg"><g><path d="m199.727 94.187c8.284 0 15-6.716 15-15v-64.266c-.793-19.902-29.215-19.887-30 0v64.267c0 8.284 6.716 14.999 15 14.999z"/><path d="m124.854 89.794c5.856 5.857 15.355 5.859 21.213 0 5.858-5.858 5.858-15.355 0-21.213l-16.066-16.066c-5.857-5.858-15.355-5.858-21.213 0s-5.858 15.355 0 21.213z"/><path d="m274.6 89.794 16.066-16.066c5.858-5.858 5.858-15.355 0-21.213-5.857-5.858-15.355-5.858-21.213 0l-16.066 16.066c-5.858 5.858-5.858 15.355 0 21.213 5.856 5.857 15.355 5.859 21.213 0z"/><path d="m380.808 229.037c8.566-8.565 8.578-22.443 0-31.019-8.567-8.567-22.442-8.577-31.02 0l-52.233 52.233c-8.552 8.552-8.552 22.468 0 31.02 8.555 8.548 22.472 8.549 31.021 0l52.229-52.229c.001-.003.002-.004.003-.005z"/><path d="m380.808 333.503 39.176-39.176h.001c8.566-8.566 8.578-22.443 0-31.02-8.565-8.566-22.442-8.579-31.019 0l-39.178 39.177c-8.55 8.55-8.548 22.466.003 31.023 8.564 8.562 22.44 8.572 31.017-.004z"/><path d="m459.16 328.602c-8.489-8.489-22.372-8.652-31.018-.007l-26.115 26.116c-8.579 8.58-8.566 22.456-.005 31.017 8.67 8.682 22.576 8.454 31.013.007l26.118-26.119.008-.008c8.45-8.439 8.668-22.348-.001-31.006z"/><path d="m365.602 370.222c0-.101.007-.201.007-.302-13.972.104-27.158-5.328-37.034-15.203-10.206-10.212-15.26-23.649-15.175-37.058-13.425.102-26.841-4.975-37.055-15.172-20.252-20.252-20.252-53.2-.003-73.449l143.643-143.634c8.189-8.2 8.874-22.158.058-30.974-7.339-7.338-21.264-9.86-31.077-.046l-185.261 185.26 2.45 2.45c41.849 41.849 41.849 109.942 0 151.791-5.858 5.859-15.357 5.857-21.213 0-5.858-5.857-5.858-15.355 0-21.213 30.151-30.152 30.151-79.213 0-109.365 0 0-13.062-13.069-13.063-13.073-1.948-1.952-3.36-4.432-4.002-7.214l-17.165-74.378c-5.285-22.905-29.532-36.182-51.77-28.021-5.913 2.17-9.839 7.806-9.833 14.104l.205 212.227-38.58 38.563c-5.858 5.858-5.858 15.355 0 21.213l80.8 80.8c2.813 2.813 6.628 4.393 10.607 4.393h147.984c10.783 0 20.927-4.205 28.562-11.839l81.05-81.047c-7.037-2.56-13.488-6.647-18.935-12.102-9.8-9.799-15.2-22.839-15.2-36.711z"/></g></svg>
